PathFileType	4	(X/Y/Z)	C:\Users\Biomechanik\SynologyDrive\AlexP\Athlete_03\Athlete_3_25_03_31\Squat_bw_02\marker_experimental.trc
DataRate	CameraRate	NumFrames	NumMarkers	Units	OrigDataRate	OrigDataStartFrame	OrigNumFrames
200.000000	200.000000	4	55	mm	200.000000	377	604
Frame#	Time	BL			BR			GLAB			RFHD			LFHD			C7			T6			SPINMOL			SPINM2			SPINM3			T12			BELTOL			BELT2			BELT3			SACROL			SACR2			SACR3			LTHOL			LTH2			LTH3			LSHAOL			LSHA2			LSHA3			LHEE			LTOE			LM5			RTHOL			RTH2			RTH3			RSHAOL			RSHA2			RSHA3			RHEE			RTOE			RM5			STRN			XIPH			LACR			LUAOL			LUA2			LUA3			LLAOL			LLA2			LLA3			LWRR			LWRU			RACR			RUAOL			RUA2			RUA3			RLAOL			RLA2			RLA3			RWRR			RWRU			
		X1	Y1	Z1	X2	Y2	Z2	X3	Y3	Z3	X4	Y4	Z4	X5	Y5	Z5	X6	Y6	Z6	X7	Y7	Z7	X8	Y8	Z8	X9	Y9	Z9	X10	Y10	Z10	X11	Y11	Z11	X12	Y12	Z12	X13	Y13	Z13	X14	Y14	Z14	X15	Y15	Z15	X16	Y16	Z16	X17	Y17	Z17	X18	Y18	Z18	X19	Y19	Z19	X20	Y20	Z20	X21	Y21	Z21	X22	Y22	Z22	X23	Y23	Z23	X24	Y24	Z24	X25	Y25	Z25	X26	Y26	Z26	X27	Y27	Z27	X28	Y28	Z28	X29	Y29	Z29	X30	Y30	Z30	X31	Y31	Z31	X32	Y32	Z32	X33	Y33	Z33	X34	Y34	Z34	X35	Y35	Z35	X36	Y36	Z36	X37	Y37	Z37	X38	Y38	Z38	X39	Y39	Z39	X40	Y40	Z40	X41	Y41	Z41	X42	Y42	Z42	X43	Y43	Z43	X44	Y44	Z44	X45	Y45	Z45	X46	Y46	Z46	X47	Y47	Z47	X48	Y48	Z48	X49	Y49	Z49	X50	Y50	Z50	X51	Y51	Z51	X52	Y52	Z52	X53	Y53	Z53	X54	Y54	Z54	X55	Y55	Z55	

378	1.885	960.7085571289062	36.20519638061536	-1933.55712890625	1063.18017578125	32.88969421386718	86.64217376708984	569.4779052734375	908.3740844726564	-1207.650146484375	524.5214233398438	939.7190551757814	-1143.41259765625	528.1719970703125	937.2812500000001	-1279.364868164062	303.472900390625	828.1522827148439	-1208.691162109375	172.1660614013672	733.2846069335939	-1213.468139648438	149.5221710205078	710.4082031250001	-1235.793701171875	140.6139221191406	704.2669067382814	-1187.0400390625	106.8748016357422	661.1776733398439	-1224.010375976562	71.24634552001953	614.6836547851564	-1222.6162109375	35.91990661621094	604.4471435546876	-1237.143188476562	36.38996124267578	600.1741333007814	-1186.848510742188	2.092009782791138	550.7890014648439	-1217.0791015625	-45.8194694519043	415.5548095703126	-1241.652587890625	-42.86919403076172	414.4799499511719	-1190.418212890625	-45.85555648803711	353.9974365234376	-1216.885986328125	158.9991302490234	349.0812072753907	-1514.173217773438	216.0392150878906	304.7736816406251	-1546.740112304688	209.0780792236328	354.7695922851564	-1549.204711914062	249.9153747558594	291.5485229492189	-1624.069702148438	188.4912719726562	255.7715454101563	-1587.670288085938	229.5513610839844	235.2387695312501	-1608.647827148438	116.6415328979492	72.75350952148446	-1469.471801757812	320.5003051757812	47.9267463684083	-1542.73681640625	241.3041839599609	28.37913513183604	-1624.700805664062	151.2859039306641	333.5645446777344	-918.5505981445312	182.7864685058594	399.8450012207032	-886.2371826171875	197.9889984130859	352.5747070312501	-881.7991943359375	236.3819580078125	302.2677917480469	-806.729736328125	234.1849212646484	223.3990478515626	-808.0755615234375	204.5670318603516	255.1702728271485	-832.3251953125	101.9489974975586	67.08808135986334	-972.6552124023438	288.0603637695312	44.6402091979981	-882.83984375	204.0731353759766	41.65242767333989	-805.8800048828125	420.8883972167969	664.6107788085939	-1214.998291015625	365.7538757324219	530.3111572265626	-1210.84619140625	358.2362060546875	780.0783691406251	-1372.776733398438	264.8821411132812	704.1422119140626	-1496.520629882812	213.8293151855469	668.0745849609376	-1517.8017578125	256.9498901367188	660.3568115234376	-1544.646362304688	276.6625366210938	600.1860961914064	-1634.060668945312	350.6116943359375	571.5639038085939	-1634.267333984375	334.9237670898438	619.5593872070314	-1629.382934570312	423.9009094238281	672.5714111328126	-1617.17431640625	414.9117126464844	670.6679077148439	-1539.578125	359.7497863769531	781.9702758789064	-1065.72216796875	272.5493774414062	713.6647949218751	-942.4856567382812	256.3493041992188	677.9207153320312	-889.9984130859375	221.7405853271484	674.3208007812501	-928.5923461914062	297.5749206542969	634.89111328125	-785.5718383789062	322.9331665039062	708.7616577148438	-802.1756591796875	350.4857788085938	667.3452758789062	-793.4122924804688	412.3932189941406	735.1445922851562	-816.8975219726562	408.4999694824219	725.5092163085938	-894.8445434570312	
379	1.89	960.70849609375	36.205047607422	-1933.556640625	1063.180419921875	32.8898582458496	86.64267730712891	569.1307983398438	908.3117065429689	-1207.575805664062	524.1132202148438	939.6164550781251	-1143.358764648438	527.8292846679688	937.1826782226564	-1279.30224609375	303.2253112792969	827.9085083007814	-1208.730834960938	171.9655914306641	733.0187988281251	-1213.5234375	149.3319854736328	710.1379394531251	-1235.853271484375	140.4170989990234	704.0035400390626	-1187.08544921875	106.6853485107422	660.9030761718751	-1224.073608398438	71.04814147949219	614.3786621093751	-1222.69384765625	35.72882080078125	604.1058959960939	-1237.207275390625	36.20785522460938	599.8378295898439	-1186.903076171875	1.946860194206238	550.4159545898439	-1217.14501953125	-45.88212203979492	415.0859375000001	-1241.715454101562	-42.94668579101562	414.0203247070313	-1190.477905273438	-45.82767486572266	353.5270690917969	-1216.93798828125	159.0101470947266	348.9038696289064	-1514.19140625	216.0910034179688	304.652313232422	-1546.772094726562	209.07958984375	354.6442871093751	-1549.229614257812	249.9296875	291.5151367187501	-1624.08203125	188.5046691894531	255.7393188476563	-1587.68212890625	229.5680084228516	235.2064361572266	-1608.653442382812	116.6547775268555	72.7466354370118	-1469.443115234375	320.5094299316406	47.92294692993173	-1542.722412109375	241.3087310791016	28.39085388183604	-1624.688232421875	151.2612152099609	333.4005432128907	-918.5792846679688	182.6820983886719	399.7302246093751	-886.283935546875	197.9262390136719	352.4752502441407	-881.8140258789062	236.3162689208984	302.2876281738282	-806.7384033203125	234.1492919921875	223.4173889160157	-808.0892944335938	204.5234832763672	255.1737823486329	-832.3408203125	101.9589309692383	67.07337951660162	-972.6666259765625	288.0597839355469	44.6388664245606	-882.85107421875	204.0784301757812	41.65444564819341	-805.894287109375	420.7304077148438	664.4087524414064	-1215.005737304688	365.6402282714844	530.1099853515626	-1210.844360351562	358.0393371582031	779.8083496093751	-1372.810668945312	264.7294006347656	703.8677978515626	-1496.582885742188	213.6913604736328	667.7893066406251	-1517.873046875	256.7236022949219	660.1372680664064	-1544.739624023438	276.5460815429688	599.9143676757814	-1634.11669921875	350.497314453125	571.3072509765626	-1634.31494140625	334.8026123046875	619.2929077148439	-1629.420654296875	423.7677307128906	672.3206787109376	-1617.18408203125	414.7665405273438	670.3999023437501	-1539.592163085938	359.516357421875	781.7399291992189	-1065.751220703125	272.3177795410156	713.4413452148439	-942.5174560546875	256.1190490722656	677.713134765625	-890.0098266601562	221.5193634033203	674.0944824218751	-928.6085205078125	297.3486328125	634.7161865234375	-785.5726318359375	322.6853332519531	708.5892944335938	-802.1930541992188	350.2494812011719	667.1836547851562	-793.4161376953125	412.1336059570312	734.98876953125	-816.9088745117188	408.2643737792969	725.3271484375	-894.8596801757812	
380	1.895	960.70849609375	36.20477294921887	-1933.556274414062	1063.180541992188	32.88985061645507	86.64326477050781	568.7803955078125	908.2581787109376	-1207.500732421875	523.7021484375	939.5228271484376	-1143.304077148438	527.4853515625	937.0924682617189	-1279.240966796875	302.9748840332031	827.6716308593751	-1208.771118164062	171.7624969482422	732.7585449218751	-1213.579956054688	149.1397247314453	709.8720092773439	-1235.914184570312	140.2193756103516	703.7454833984376	-1187.134521484375	106.4961166381836	660.6314697265626	-1224.137573242188	70.850830078125	614.0776977539064	-1222.77294921875	35.53892135620117	603.7713623046876	-1237.271606445312	36.02405166625977	599.5070190429689	-1186.960815429688	1.80060601234436	550.0497436523439	-1217.212524414062	-45.9423942565918	414.6272583007813	-1241.777709960938	-43.02150344848633	413.5711669921876	-1190.538208007812	-45.79580307006836	353.0614624023438	-1216.988891601562	159.0192260742188	348.7292785644532	-1514.207641601562	216.1406707763672	304.5332946777345	-1546.802001953125	209.0796356201172	354.521453857422	-1549.252319335938	249.9420776367188	291.4830017089845	-1624.092895507812	188.5162200927734	255.707977294922	-1587.6923828125	229.5829162597656	235.1754302978516	-1608.657592773438	116.6667404174805	72.73912048339852	-1469.416381835938	320.5183410644531	47.91962051391611	-1542.708618164062	241.3130493164062	28.40219879150401	-1624.675415039062	151.2295074462891	333.2389526367188	-918.6062622070312	182.5708770751953	399.6180419921876	-886.3284301757812	197.8565521240234	352.3784179687501	-881.8267211914062	236.2449340820312	302.3078918457032	-806.74462890625	234.1096496582031	223.4361572265626	-808.1013793945312	204.4751281738281	255.1773986816407	-832.3543701171875	101.9690704345703	67.05705261230474	-972.6774291992188	288.058837890625	44.63750076293951	-882.8624267578125	204.0835571289062	41.65634536743169	-805.90771484375	420.5689086914062	664.2125854492189	-1215.011596679688	365.5221557617188	529.9099121093751	-1210.84130859375	357.8407897949219	779.5444335937501	-1372.843994140625	264.5755920410156	703.6002197265626	-1496.645629882812	213.5560150146484	667.5073852539064	-1517.942504882812	256.4896850585938	659.9315185546876	-1544.834106445312	276.4308166503906	599.6508178710939	-1634.171997070312	350.3841247558594	571.0607299804689	-1634.365600585938	334.6823120117188	619.0362548828126	-1629.460083007812	423.6347961425781	672.0804443359376	-1617.194458007812	414.6230163574219	670.1380615234376	-1539.60693359375	359.2794189453125	781.5167236328126	-1065.781127929688	272.0829772949219	713.2254028320314	-942.5490112304688	255.8855438232422	677.51123046875	-890.0208740234375	221.2948608398438	673.8743286132814	-928.6244506835938	297.1199645996094	634.5466918945312	-785.5736694335938	322.4356689453125	708.42333984375	-802.2112426757812	350.0103454589844	667.0283203125	-793.4196166992188	411.8713073730469	734.83984375	-816.9208374023438	408.0263671875	725.151611328125	-894.87451171875	
381	1.9	960.7086181640625	36.2044372558595	-1933.555908203125	1063.180541992188	32.88967132568359	86.64387512207031	568.4267578125	908.2137451171876	-1207.425903320312	523.2888793945312	939.4385375976564	-1143.249145507812	527.1399536132812	937.0109252929689	-1279.181762695312	302.7211608886719	827.4418945312501	-1208.811889648438	171.5567474365234	732.5037841796876	-1213.637451171875	148.9451904296875	709.6104736328126	-1235.97607421875	140.0207672119141	703.4927978515626	-1187.1875	106.3070297241211	660.3627319335939	-1224.2021484375	70.65474700927734	613.7807617187501	-1222.852661132812	35.35095596313477	603.4435424804689	-1237.3359375	35.83864212036133	599.1818847656251	-1187.022338867188	1.653385400772095	549.6906738281251	-1217.281616210938	-46.00098419189453	414.1791992187501	-1241.83984375	-43.09471130371094	413.1328735351563	-1190.599975585938	-45.76044464111328	352.6009521484376	-1217.039306640625	159.0263977050781	348.5577392578126	-1514.221923828125	216.1883697509766	304.416961669922	-1546.829345703125	209.0781402587891	354.4015502929689	-1549.2724609375	249.9524841308594	291.4526672363282	-1624.102172851562	188.52587890625	255.6781005859376	-1587.700805664062	229.5960235595703	235.1462707519532	-1608.66015625	116.677375793457	72.73123931884774	-1469.391723632812	320.5269775390625	47.91689300537119	-1542.69580078125	241.3170166015625	28.41310691833506	-1624.662475585938	151.1904907226562	333.0801391601563	-918.6319580078125	182.4529266357422	399.5086364746094	-886.3709716796875	197.7799682617188	352.2842712402344	-881.8377685546875	236.1680908203125	302.3285522460938	-806.7489013671875	234.0662078857422	223.4553375244141	-808.1121215820312	204.4221343994141	255.1812744140626	-832.3662109375	101.9792938232422	67.03932189941412	-972.6876831054688	288.0575561523438	44.63610076904303	-882.8737182617188	204.0885009765625	41.65843582153325	-805.9200439453125	420.4037780761719	664.0222778320314	-1215.015502929688	365.3995056152344	529.7116699218751	-1210.836547851562	357.6401672363281	779.2868652343751	-1372.876953125	264.4203796386719	703.3386840820314	-1496.708129882812	213.4218597412109	667.2294921875001	-1518.010620117188	256.2510375976562	659.7363281250001	-1544.928344726562	276.3161315917969	599.3950195312501	-1634.2265625	350.2719116210938	570.8243408203126	-1634.420043945312	334.5622253417969	618.7890625000001	-1629.501098632812	423.5010681152344	671.8511962890626	-1617.2060546875	414.480712890625	669.8826293945314	-1539.622802734375	359.0390014648438	781.3014526367189	-1065.811279296875	271.8453063964844	713.0170898437501	-942.57958984375	255.649169921875	677.3146362304688	-890.0313720703125	221.0672607421875	673.6601562500001	-928.639892578125	296.8890686035156	634.3818359375	-785.5750732421875	322.1846618652344	708.2628173828125	-802.2297973632812	349.7687683105469	666.87841796875	-793.4227294921875	411.6069946289062	734.6972045898438	-816.9332275390625	407.7859191894531	724.9826049804688	-894.888671875	
